<?xml version="1.0" encoding="utf-8"?>
<!-- Generator: Adobe Illustrator 22.1.0, SVG Export Plug-In . SVG Version: 6.00 Build 0)  -->
<svg version="1.1" id="Layer_1" xmlns="http://www.w3.org/2000/svg" xmlns:xlink="http://www.w3.org/1999/xlink" x="0px" y="0px"
	 viewBox="0 0 107.9 99.6" style="enable-background:new 0 0 107.9 99.6;" xml:space="preserve">
<style type="text/css">
	.st0{fill:none;stroke:#000000;stroke-miterlimit:10;}
	.st1{stroke:#000000;stroke-miterlimit:10;}
</style>
<path class="st0" d="M18.4,62.7c0,9.1,0.5,20.1,6.3,26.6c7.5,8.3,20.6,10.5,34.9,9.7c21.5-1.6,42-12.9,40.2-36.3
	c0-20.7-18.2-37.5-40.7-37.5S18.4,41.9,18.4,62.7z"/>
<path class="st0" d="M38.2,76.7c0,0,27.8-0.2,39.8-3c13.5-3,13-9.1,13-9.1"/>
<path class="st0" d="M84.6,81.9"/>
<path class="st0" d="M58.5,83.5c0,0,5.3-2,10.8-1.6s5.3-2,5.3-2"/>
<circle class="st1" cx="38.7" cy="61.3" r="2.3"/>
<path d="M15.6,65.7c-0.2-1.6-0.1-3.4-1.3-3.6c-0.7-0.1-1.7,3-3,2c-1.4-1-0.2-4,0-10S-1.8,30.3,0.2,28.2s9.5,4.6,12,2.9
	S4.4,12.6,5.7,9.9s8.7,3.2,12,2.2s-2.6-9.7,1.8-11.9S34.9,10.8,57,10.1c33.3-1,45.1,8,47,27c1,10,6,22,3,23c-1,1-2.8-3-3.4-2
	c-0.6,1,0.4,16-4.6,16c-0.9,0,1.9-10.2-1.5-7.1C94,70.1,96.1,54.3,94,54.1c-2.1-0.2-1,2-2.7,3c-3,0-4.2-13-5.5-13.5
	s-4.7,5.2-6.4,3.9s-3.5-9.2-6-8.8c-2.6,0.4-12.6,11.8-15.4,10.6c-2.8-1.2-9.1-12.9-11.3-12.5s-9.6,16.4-11.3,16.4s-5.9-6.9-8.2-6.6
	C26.3,46.7,20.3,83.6,15.6,65.7z"/>
<circle class="st1" cx="72.2" cy="59.5" r="2.3"/>
</svg>
