<?xml version="1.0" encoding="utf-8"?>
<!-- Generator: Adobe Illustrator 22.1.0, SVG Export Plug-In . SVG Version: 6.00 Build 0)  -->
<svg version="1.1" id="Layer_1" xmlns="http://www.w3.org/2000/svg" xmlns:xlink="http://www.w3.org/1999/xlink" x="0px" y="0px"
	 viewBox="0 0 188.7 197.8" style="enable-background:new 0 0 188.7 197.8;" xml:space="preserve">
<style type="text/css">
	.st0{fill:#FFFFFF;stroke:#000000;stroke-width:3;stroke-miterlimit:10;}
	.st1{fill:none;stroke:#000000;stroke-width:3;stroke-miterlimit:10;}
</style>
<line class="st0" x1="1.2" y1="196.9" x2="151.2" y2="0.9"/>
<path class="st1" d="M42.2,92.9c0,0,37-3,49-5s44-2,44-2"/>
<path class="st1" d="M93.2,104.9c0,0-7,5-5,11c0.6,1.3,3,2,6,0s6-7,8-7s-1,5-1,7s1,2,3,2s7.4-6.1,10-7c3-1-1,6,1,6s10-7,12-7
	s-1,6,0,7s6-8,15-8c2,1-4,8-2,8s12-7,13-7s-1,4,0,5s9,0,14-3s4-7,2-7s-6,4-7,6s0,7,6,6c3,0,5-3,5-3"/>
<path class="st1" d="M188.2,104.9c0,0-10,4-10,6s1,3,2,4c4,3,7,1,7,5c0,2-2,3-3,4s-4,3-9,5c-5,2-8,1-8,1"/>
</svg>
