<?xml version="1.0" encoding="utf-8"?>
<!-- Generator: Adobe Illustrator 22.1.0, SVG Export Plug-In . SVG Version: 6.00 Build 0)  -->
<svg version="1.1" id="Layer_1" xmlns="http://www.w3.org/2000/svg" xmlns:xlink="http://www.w3.org/1999/xlink" x="0px" y="0px"
	 viewBox="0 0 769.8 308" style="enable-background:new 0 0 769.8 308;" xml:space="preserve">
<style type="text/css">
	.st0{fill:none;stroke:#000000;stroke-miterlimit:10;}
	.st1{font-family:'Montserrat-SemiBold';}
	.st2{font-size:14px;}
	.st3{font-family:'Montserrat-MediumItalic';}
	.st4{font-size:10px;}
	.st5{font-family:'Montserrat-Regular';}
	.st6{font-size:11px;}
	.st7{stroke:#000000;stroke-miterlimit:10;}
</style>
<path class="st0" d="M520.9,268h-275c-2.2,0-4-1.8-4-4V48c0-2.2,1.8-4,4-4h275c2.2,0,4,1.8,4,4v216C524.9,266.2,523.1,268,520.9,268
	z"/>
<line class="st0" x1="255.4" y1="97.5" x2="510.4" y2="98.5"/>
<text transform="matrix(1 0 0 1 255.8906 71)" class="st1 st2">Produto Exemplo - Exemplo.com</text>
<text transform="matrix(1 0 0 1 255.8906 88)" class="st3 st4">https://www.exemplo.com/produto-ex...</text>
<text transform="matrix(1 0 0 1 256.8906 129.5)" class="st1 st4">Produto Exemplo </text>
<text transform="matrix(1 0 0 1 349.2906 129.5)" class="st5 st4">muito bom,</text>
<text transform="matrix(1 0 0 1 256.8906 142.7)" class="st5 st4">nossa loja facilita o parcelam-</text>
<text transform="matrix(1 0 0 1 256.8906 155.9)" class="st5 st4">ento em até 10x sem juros </text>
<text transform="matrix(1 0 0 1 256.8906 169.1)" class="st5 st4">venha conferir...</text>
<text transform="matrix(1 0 0 1 256.8906 240.5)" class="st5 st6">Preço</text>
<text transform="matrix(1 0 0 1 255.8906 254.5)" class="st5 st6">R$ 1.000,00</text>
<text transform="matrix(1 0 0 1 383.8906 240.5)" class="st5 st6">Disponibilidade</text>
<text transform="matrix(1 0 0 1 383.8906 254.5)" class="st5 st6">Em estoque</text>
<text transform="matrix(1 0 0 1 256.8906 200.5)" class="st5 st6">Classificação</text>
<path class="st0" d="M503.4,204.5h-78c-1.6,0-3-1.4-3-3v-81c0-1.7,1.4-3,3-3h78c1.6,0,3,1.3,3,3v81
	C506.4,203.1,505,204.5,503.4,204.5z"/>
<path d="M269.1,209.8c0.2-0.2,0.3-0.6,0.2-0.9c-0.1-0.3-0.4-0.5-0.7-0.6l-2.9-0.4c-0.1,0-0.2-0.1-0.3-0.2l-1.3-2.6
	c-0.1-0.3-0.4-0.5-0.8-0.5c-0.3,0-0.6,0.2-0.8,0.5l-1.3,2.6c-0.1,0.1-0.2,0.2-0.3,0.2l-2.9,0.4c-0.3,0-0.6,0.3-0.7,0.6
	s0,0.7,0.2,0.9l2.1,2c0.1,0.1,0.1,0.2,0.1,0.3l-0.5,2.9c0,0.3,0,0.5,0.2,0.7c0.3,0.3,0.7,0.4,1.1,0.2l2.6-1.4c0.1-0.1,0.2-0.1,0.4,0
	l2.6,1.4c0.1,0.1,0.3,0.1,0.4,0.1c0.3,0,0.5-0.1,0.7-0.3s0.2-0.4,0.2-0.7l-0.5-2.9c0-0.1,0-0.2,0.1-0.3L269.1,209.8z"/>
<path class="st7" d="M329.1,209.8c0.2-0.2,0.3-0.6,0.2-0.9c-0.1-0.3-0.4-0.5-0.7-0.6l-2.9-0.4c-0.1,0-0.2-0.1-0.3-0.2l-1.3-2.6
	c-0.1-0.3-0.4-0.5-0.8-0.5c-0.3,0-0.6,0.2-0.8,0.5l-1.3,2.6c-0.1,0.1-0.2,0.2-0.3,0.2l-2.9,0.4c-0.3,0-0.6,0.3-0.7,0.6
	s0,0.7,0.2,0.9l2.1,2c0.1,0.1,0.1,0.2,0.1,0.3l-0.5,2.9c-0.1,0.3,0.1,0.6,0.3,0.8c0.3,0.2,0.6,0.2,0.9,0.1l2.6-1.4
	c0.1-0.1,0.2-0.1,0.4,0l2.6,1.4c0.1,0.1,0.3,0.1,0.4,0.1c0.2,0,0.4-0.1,0.5-0.2c0.3-0.2,0.4-0.5,0.3-0.8l-0.5-2.9
	c0-0.1,0-0.2,0.1-0.3L329.1,209.8z M326.4,212.2l0.5,2.9c0,0.1,0,0.3-0.2,0.4c-0.1,0.1-0.3,0.1-0.4,0l-2.6-1.4
	c-0.1-0.1-0.3-0.1-0.4-0.1s-0.3,0-0.4,0.1l-2.6,1.4c-0.1,0.1-0.3,0.1-0.4,0s-0.2-0.2-0.2-0.4l0.5-2.9c0-0.3,0-0.6-0.2-0.8l-2.1-2
	c-0.1-0.1-0.1-0.2-0.1-0.4c0-0.1,0.2-0.2,0.3-0.3l2.9-0.4c0.3,0,0.5-0.2,0.6-0.5l1.3-2.6c0.1-0.1,0.2-0.2,0.3-0.2
	c0.1,0,0.3,0.1,0.3,0.2l1.3,2.6c0.1,0.3,0.4,0.4,0.6,0.5l2.9,0.4c0.1,0,0.3,0.1,0.3,0.3c0,0.1,0,0.3-0.1,0.4l-2.1,2
	C326.5,211.7,326.4,211.9,326.4,212.2z"/>
<path d="M284.1,209.8c0.2-0.2,0.3-0.6,0.2-0.9c-0.1-0.3-0.4-0.5-0.7-0.6l-2.9-0.4c-0.1,0-0.2-0.1-0.3-0.2l-1.3-2.6
	c-0.1-0.3-0.4-0.5-0.8-0.5c-0.3,0-0.6,0.2-0.8,0.5l-1.3,2.6c-0.1,0.1-0.2,0.2-0.3,0.2l-2.9,0.4c-0.3,0-0.6,0.3-0.7,0.6
	s0,0.7,0.2,0.9l2.1,2c0.1,0.1,0.1,0.2,0.1,0.3l-0.5,2.9c0,0.3,0,0.5,0.2,0.7c0.3,0.3,0.7,0.4,1.1,0.2l2.6-1.4c0.1-0.1,0.2-0.1,0.4,0
	l2.6,1.4c0.1,0.1,0.3,0.1,0.4,0.1c0.3,0,0.5-0.1,0.7-0.3s0.2-0.4,0.2-0.7l-0.5-2.9c0-0.1,0-0.2,0.1-0.3L284.1,209.8z"/>
<path d="M299.1,209.8c0.2-0.2,0.3-0.6,0.2-0.9c-0.1-0.3-0.4-0.5-0.7-0.6l-2.9-0.4c-0.1,0-0.2-0.1-0.3-0.2l-1.3-2.6
	c-0.1-0.3-0.4-0.5-0.8-0.5c-0.3,0-0.6,0.2-0.8,0.5l-1.3,2.6c-0.1,0.1-0.2,0.2-0.3,0.2l-2.9,0.4c-0.3,0-0.6,0.3-0.7,0.6
	s0,0.7,0.2,0.9l2.1,2c0.1,0.1,0.1,0.2,0.1,0.3l-0.5,2.9c0,0.3,0,0.5,0.2,0.7c0.3,0.3,0.7,0.4,1.1,0.2l2.6-1.4c0.1-0.1,0.2-0.1,0.4,0
	l2.6,1.4c0.1,0.1,0.3,0.1,0.4,0.1c0.3,0,0.5-0.1,0.7-0.3s0.2-0.4,0.2-0.7l-0.5-2.9c0-0.1,0-0.2,0.1-0.3L299.1,209.8z"/>
<path d="M314.1,209.8c0.2-0.2,0.3-0.6,0.2-0.9c-0.1-0.3-0.4-0.5-0.7-0.6l-2.9-0.4c-0.1,0-0.2-0.1-0.3-0.2l-1.3-2.6
	c-0.1-0.3-0.4-0.5-0.8-0.5c-0.3,0-0.6,0.2-0.8,0.5l-1.3,2.6c-0.1,0.1-0.2,0.2-0.3,0.2l-2.9,0.4c-0.3,0-0.6,0.3-0.7,0.6
	s0,0.7,0.2,0.9l2.1,2c0.1,0.1,0.1,0.2,0.1,0.3l-0.5,2.9c0,0.3,0,0.5,0.2,0.7c0.3,0.3,0.7,0.4,1.1,0.2l2.6-1.4c0.1-0.1,0.2-0.1,0.4,0
	l2.6,1.4c0.1,0.1,0.3,0.1,0.4,0.1c0.3,0,0.5-0.1,0.7-0.3s0.2-0.4,0.2-0.7l-0.5-2.9c0-0.1,0-0.2,0.1-0.3L314.1,209.8z"/>
<g>
	<path d="M451.1,156.4c3.3,0,6-2.7,6-6s-2.7-6-6-6s-6,2.7-6,6S447.8,156.4,451.1,156.4z M451.1,146.6c2.1,0,3.8,1.7,3.8,3.8
		s-1.7,3.8-3.8,3.8s-3.8-1.7-3.8-3.8C447.3,148.4,449,146.6,451.1,146.6z"/>
	<path d="M441.5,175.5c0.3,0,0.5-0.1,0.7-0.3l17.4-15.4l11,11c0.4,0.4,1.1,0.4,1.5,0s0.4-1.1,0-1.5l-5.1-5.1l9.8-10.7l12,11
		c0.4,0.4,1.1,0.4,1.5-0.1c0.4-0.4,0.4-1.1-0.1-1.5l-12.8-11.8c-0.2-0.2-0.5-0.3-0.8-0.3s-0.6,0.1-0.7,0.3l-10.5,11.5l-5.1-5.1
		c-0.4-0.4-1-0.4-1.5,0l-18.2,16c-0.4,0.4-0.5,1.1-0.1,1.5C440.9,175.4,441.2,175.5,441.5,175.5z"/>
</g>
<polyline class="st0" points="231.4,126.5 215.1,126.5 199.4,126.6 "/>
<polyline class="st0" points="205.1,132.6 198.6,126.6 205.1,120.5 "/>
<text transform="matrix(1 0 0 1 582.3906 72.1665)" class="st5 st6">O titulo do produto, marcado  </text>
<text transform="matrix(1 0 0 1 582.3906 85.3665)" class="st5 st6">com a propriedade name.</text>
<text transform="matrix(1 0 0 1 586.3906 157.1665)" class="st5 st6">A imagem do produto com a </text>
<text transform="matrix(1 0 0 1 586.3906 170.3665)" class="st5 st6">propriedade image.</text>
<text transform="matrix(1 0 0 1 586.3906 246.1665)" class="st5 st6">Disponibilidade do produto </text>
<text transform="matrix(1 0 0 1 586.3906 259.3665)" class="st5 st6">com a propriedade availability. </text>
<text transform="matrix(1 0 0 1 23.1211 124.1665)" class="st5 st6">Uma completa, declarada com </text>
<text transform="matrix(1 0 0 1 46.7211 137.3665)" class="st5 st6">a propriedade description.</text>
<text transform="matrix(1 0 0 1 29.3545 196.1665)" class="st5 st6">A agregação de reviews, com </text>
<text transform="matrix(1 0 0 1 15.2545 209.3665)" class="st5 st6">a propriedade AggregateRating. </text>
<text transform="matrix(1 0 0 1 53.75 248.1665)" class="st5 st6">O valor do produto feita </text>
<text transform="matrix(1 0 0 1 44.15 261.3665)" class="st5 st6">com a propriedade offers. </text>
<circle class="st0" cx="233.4" cy="126.5" r="2"/>
<polyline class="st0" points="231.4,203.5 215.1,203.5 199.4,203.6 "/>
<polyline class="st0" points="205.1,209.6 198.6,203.6 205.1,197.5 "/>
<circle class="st0" cx="233.4" cy="203.5" r="2"/>
<polyline class="st0" points="231.4,250.5 215.1,250.5 199.4,250.6 "/>
<polyline class="st0" points="205.1,256.6 198.6,250.6 205.1,244.5 "/>
<circle class="st0" cx="233.4" cy="250.5" r="2"/>
<polyline class="st0" points="537.6,76.5 553.8,76.5 569.6,76.6 "/>
<polyline class="st0" points="563.8,82.6 570.4,76.6 563.9,70.5 "/>
<circle class="st0" cx="535.6" cy="76.5" r="2"/>
<polyline class="st0" points="536.6,161.5 552.8,161.5 568.6,161.6 "/>
<polyline class="st0" points="562.8,167.6 569.4,161.6 562.9,155.5 "/>
<circle class="st0" cx="534.6" cy="161.5" r="2"/>
<polyline class="st0" points="537.6,246.5 553.8,246.5 569.6,246.6 "/>
<polyline class="st0" points="563.8,252.6 570.4,246.6 563.9,240.5 "/>
<circle class="st0" cx="535.6" cy="246.5" r="2"/>
</svg>
